<svg width="30" height="30" viewBox="0 0 30 30" fill="none" xmlns="http://www.w3.org/2000/svg">
<path d="M29 14.3092C29 21.9313 22.6355 28.1096 14.7776 28.1096C13.6035 28.1096 12.4665 27.9723 11.3756 27.7105C11.0449 27.6312 10.6993 27.6616 10.395 27.8131L7.28239 29.3623C6.47882 29.7621 5.53303 29.1804 5.53303 28.2858V25.4373C5.53303 25.0303 5.35027 24.651 5.04875 24.3764C2.27965 21.857 0.555176 18.2795 0.555176 14.3092C0.555176 6.68713 6.91972 0.508789 14.7776 0.508789C22.6355 0.508789 29 6.68713 29 14.3092Z" fill="url(#paint0_radial_5061_1598)"/>
<path opacity="0.05" d="M22.5953 9.91479C22.2909 9.91479 21.9958 10.0153 21.7419 10.2057L17.6928 13.1887C17.5982 13.2594 17.4937 13.2948 17.3834 13.2948C17.2768 13.2948 17.1765 13.2616 17.0919 13.1986L14.2673 11.0825C13.6927 10.6572 13.0157 10.4328 12.3067 10.4328C11.186 10.4328 10.1556 10.9926 9.55044 11.9304L8.68927 13.2686L5.75945 18.0068C5.48069 18.4413 5.45936 18.9778 5.70896 19.4321C5.96354 19.895 6.44426 20.1823 6.96338 20.1823C7.26774 20.1823 7.56286 20.0818 7.81673 19.8914L11.8659 16.9084C11.9604 16.8376 12.065 16.8023 12.1752 16.8023C12.2819 16.8023 12.3821 16.8355 12.4668 16.8985L15.2913 19.0146C15.8666 19.4406 16.5429 19.6643 17.2519 19.6643C18.3726 19.6643 19.403 19.1045 20.0082 18.1667L20.8694 16.8284L23.7992 12.0903C24.0779 11.6558 24.0993 11.1193 23.8497 10.665C23.5951 10.2021 23.1144 9.91479 22.5953 9.91479Z" fill="black"/>
<path opacity="0.07" d="M22.5945 10.27C22.3676 10.27 22.1465 10.3457 21.9552 10.4894L17.9039 13.4745C17.7503 13.5899 17.5711 13.6501 17.3834 13.6501C17.1992 13.6501 17.025 13.592 16.8785 13.483L14.0532 11.3663C13.5419 10.9876 12.9382 10.7881 12.306 10.7881C11.3068 10.7881 10.3888 11.287 9.84904 12.1235L8.98859 13.4618L6.06232 18.195C5.85112 18.5241 5.83476 18.9261 6.02107 19.2644C6.21023 19.6083 6.58073 19.8305 6.96331 19.8305C7.19016 19.8305 7.41132 19.7548 7.60261 19.6111L11.6539 16.626C11.8075 16.5106 11.9867 16.4505 12.1744 16.4505C12.3586 16.4505 12.5328 16.5085 12.6793 16.6175L15.5046 18.7343C16.0159 19.1129 16.6196 19.3125 17.2518 19.3125C18.2509 19.3125 19.169 18.8135 19.7087 17.977L20.5692 16.6387L23.4955 11.9055C23.7067 11.5765 23.723 11.1745 23.5367 10.8362C23.3476 10.4922 22.9778 10.27 22.5945 10.27Z" fill="black"/>
<path d="M22.1695 10.7737L18.1161 13.7603C17.6824 14.0858 17.0921 14.0858 16.6655 13.7674L13.8395 11.6506C12.6448 10.766 10.9523 11.0703 10.1487 12.3158L9.28828 13.6534L6.36557 18.3809C5.9389 19.0462 6.75669 19.8035 7.38958 19.3293L11.443 16.3427C11.8768 16.0172 12.467 16.0172 12.8937 16.3357L15.7197 18.4524C16.9143 19.3371 18.6068 19.0328 19.4104 17.7872L20.2708 16.4496L23.1936 11.7221C23.6202 11.0568 22.8024 10.2996 22.1695 10.7737Z" fill="white"/>
<defs>
<radialGradient id="paint0_radial_5061_1598" cx="0" cy="0" r="1" gradientUnits="userSpaceOnUse" gradientTransform="translate(5.5949 28.094) scale(33.8579 33.6957)">
<stop stop-color="#1292FF"/>
<stop offset="0.079" stop-color="#2982FF"/>
<stop offset="0.23" stop-color="#4E69FF"/>
<stop offset="0.351" stop-color="#6559FF"/>
<stop offset="0.428" stop-color="#6D53FF"/>
<stop offset="0.754" stop-color="#DF47AA"/>
<stop offset="0.946" stop-color="#FF6257"/>
</radialGradient>
</defs>
</svg>
