<svg xmlns="http://www.w3.org/2000/svg" xmlns:xlink="http://www.w3.org/1999/xlink" width="50" zoomAndPan="magnify" viewBox="0 0 37.5 37.499999" height="50" preserveAspectRatio="xMidYMid meet" version="1.0"><defs><clipPath id="e49fe30431"><path d="M 0 0 L 37.007812 0 L 37.007812 37.007812 L 0 37.007812 Z M 0 0 " clip-rule="nonzero"/></clipPath></defs><path fill="#e6e6e6" d="M 32.550781 36.59375 L 4.457031 36.59375 C 2.222656 36.59375 0.414062 34.785156 0.414062 32.550781 L 0.414062 4.457031 C 0.414062 2.222656 2.222656 0.414062 4.457031 0.414062 L 32.5625 0.414062 C 34.785156 0.414062 36.59375 2.222656 36.59375 4.457031 L 36.59375 32.5625 C 36.59375 34.785156 34.785156 36.59375 32.550781 36.59375 Z M 32.550781 36.59375 " fill-opacity="1" fill-rule="nonzero"/><g clip-path="url(#e49fe30431)"><path fill="#ffffff" d="M 32.550781 37.007812 L 4.457031 37.007812 C 1.996094 37.007812 0 35.011719 0 32.550781 L 0 4.457031 C 0 1.996094 1.996094 0 4.457031 0 L 32.5625 0 C 35.011719 0 37.007812 1.996094 37.007812 4.457031 L 37.007812 32.5625 C 37.007812 35.011719 35.011719 37.007812 32.550781 37.007812 Z M 4.457031 0.828125 C 2.449219 0.828125 0.828125 2.449219 0.828125 4.457031 L 0.828125 32.5625 C 0.828125 34.558594 2.449219 36.179688 4.457031 36.179688 L 32.5625 36.179688 C 34.558594 36.179688 36.191406 34.558594 36.191406 32.550781 L 36.191406 4.457031 C 36.191406 2.460938 34.566406 0.828125 32.570312 0.828125 Z M 4.457031 0.828125 " fill-opacity="1" fill-rule="nonzero"/></g><path fill="#0c0b0b" d="M 22.121094 18.503906 C 22.121094 18.984375 22.03125 19.445312 21.847656 19.886719 C 21.664062 20.332031 21.402344 20.722656 21.0625 21.0625 C 20.722656 21.402344 20.332031 21.664062 19.886719 21.847656 C 19.445312 22.03125 18.984375 22.121094 18.503906 22.121094 C 18.023438 22.121094 17.5625 22.03125 17.117188 21.847656 C 16.675781 21.664062 16.285156 21.402344 15.945312 21.0625 C 15.605469 20.722656 15.34375 20.332031 15.160156 19.886719 C 14.976562 19.445312 14.886719 18.984375 14.886719 18.503906 C 14.886719 18.023438 14.976562 17.5625 15.160156 17.117188 C 15.34375 16.675781 15.605469 16.285156 15.945312 15.945312 C 16.285156 15.605469 16.675781 15.34375 17.117188 15.160156 C 17.5625 14.976562 18.023438 14.886719 18.503906 14.886719 C 18.984375 14.886719 19.445312 14.976562 19.886719 15.160156 C 20.332031 15.34375 20.722656 15.605469 21.0625 15.945312 C 21.402344 16.285156 21.664062 16.675781 21.847656 17.117188 C 22.03125 17.5625 22.121094 18.023438 22.121094 18.503906 Z M 22.121094 18.503906 " fill-opacity="1" fill-rule="nonzero"/></svg>